<svg width="15" height="15" viewBox="0 0 15 15" fill="none" xmlns="http://www.w3.org/2000/svg">
<g id="instagram-icon logo" clip-path="url(#clip0_360_414)">
<g id="Group">
<path id="Vector" d="M7.49999 1.35138C9.50258 1.35138 9.73977 1.359 10.5306 1.39508C11.2619 1.42846 11.659 1.55064 11.9233 1.65332C12.2733 1.78937 12.5232 1.95193 12.7856 2.21436C13.0481 2.47679 13.2106 2.72666 13.3467 3.07671C13.4494 3.34102 13.5715 3.73814 13.6049 4.46936C13.641 5.26023 13.6486 5.49742 13.6486 7.50002C13.6486 9.50261 13.641 9.7398 13.6049 10.5306C13.5715 11.2619 13.4494 11.659 13.3467 11.9233C13.2106 12.2734 13.0481 12.5232 12.7856 12.7857C12.5232 13.0481 12.2733 13.2107 11.9233 13.3467C11.659 13.4494 11.2619 13.5716 10.5306 13.6049C9.73989 13.641 9.5027 13.6487 7.49999 13.6487C5.49727 13.6487 5.26008 13.641 4.46936 13.6049C3.73811 13.5716 3.34099 13.4494 3.07671 13.3467C2.72663 13.2107 2.47676 13.0481 2.21433 12.7857C1.9519 12.5232 1.78934 12.2734 1.65332 11.9233C1.55061 11.659 1.42843 11.2619 1.39505 10.5307C1.35897 9.7398 1.35135 9.50261 1.35135 7.50002C1.35135 5.49742 1.35897 5.26023 1.39505 4.46939C1.42843 3.73814 1.55061 3.34102 1.65332 3.07671C1.78934 2.72666 1.9519 2.47679 2.21433 2.21436C2.47676 1.95193 2.72663 1.78937 3.07671 1.65332C3.34099 1.55064 3.73811 1.42846 4.46933 1.39508C5.2602 1.359 5.49739 1.35138 7.49999 1.35138ZM7.49999 0C5.46309 0 5.20771 0.00863368 4.40776 0.0451333C3.60944 0.0815734 3.06427 0.20834 2.58719 0.393755C2.09399 0.585423 1.67574 0.841873 1.25879 1.25882C0.841843 1.67577 0.585393 2.09402 0.393725 2.58721C0.20831 3.0643 0.0815436 3.60947 0.0451035 4.40779C0.0086039 5.20771 0 5.46312 0 7.50002C0 9.53691 0.0086039 9.79232 0.0451035 10.5922C0.0815436 11.3906 0.20831 11.9357 0.393725 12.4128C0.585393 12.906 0.841843 13.3243 1.25879 13.7412C1.67574 14.1582 2.09399 14.4146 2.58719 14.6063C3.06427 14.7917 3.60944 14.9185 4.40776 14.9549C5.20771 14.9914 5.46309 15 7.49999 15C9.53688 15 9.79229 14.9914 10.5922 14.9549C11.3905 14.9185 11.9357 14.7917 12.4128 14.6063C12.906 14.4146 13.3242 14.1582 13.7412 13.7412C14.1581 13.3243 14.4146 12.906 14.6062 12.4128C14.7917 11.9357 14.9184 11.3906 14.9549 10.5922C14.9914 9.79232 15 9.53691 15 7.50002C15 5.46312 14.9914 5.20771 14.9549 4.40779C14.9184 3.60947 14.7917 3.0643 14.6062 2.58721C14.4146 2.09402 14.1581 1.67577 13.7412 1.25882C13.3242 0.841873 12.906 0.585423 12.4128 0.393755C11.9357 0.20834 11.3905 0.0815734 10.5922 0.0451333C9.79229 0.00863368 9.53688 0 7.49999 0ZM7.49999 3.64865C5.37295 3.64865 3.64862 5.37298 3.64862 7.50002C3.64862 9.62706 5.37295 11.3514 7.49999 11.3514C9.62703 11.3514 11.3513 9.62706 11.3513 7.50002C11.3513 5.37298 9.62703 3.64865 7.49999 3.64865ZM7.49999 10C6.11928 10 4.99997 8.88072 4.99997 7.50002C4.99997 6.11931 6.11928 5 7.49999 5C8.88069 5 10 6.11931 10 7.50002C10 8.88072 8.88069 10 7.49999 10ZM12.4035 3.49649C12.4035 3.99355 12.0006 4.39651 11.5035 4.39651C11.0064 4.39651 10.6035 3.99355 10.6035 3.49649C10.6035 2.99943 11.0064 2.5965 11.5035 2.5965C12.0006 2.5965 12.4035 2.99943 12.4035 3.49649Z" fill="#1B4448"/>
</g>
</g>
<defs>
<clipPath id="clip0_360_414">
<rect width="15" height="15" fill="white"/>
</clipPath>
</defs>
</svg>
