<svg width="73" height="73" viewBox="0 0 73 73" fill="none" xmlns="http://www.w3.org/2000/svg">
<g id="Layer_1" clip-path="url(#clip0_178_311)">
<path id="Vector" d="M43.6155 0H29.3838V73H43.6155V0Z" fill="#838BFF"/>
<path id="Vector_2" d="M0 29.3842L0 43.616L73 43.616V29.3842L0 29.3842Z" fill="#838BFF"/>
<path id="Vector_3" d="M19.4476 11.5421C16.5274 8.90913 12.0267 9.14073 9.39502 12.0594C6.76331 14.9782 6.99713 19.4787 9.91729 22.1117L53.5579 61.4611C56.4781 64.0942 60.9788 63.8626 63.6105 60.9438C66.2422 58.0251 66.0084 53.5246 63.0882 50.8916L19.4476 11.5421Z" fill="#838BFF"/>
<path id="Vector_4" d="M11.5417 53.5522C8.90864 56.4724 9.14025 60.973 12.059 63.6047C14.9777 66.2364 19.4782 66.0026 22.1112 63.0825L61.4607 19.4418C64.0937 16.5217 63.8621 12.021 60.9434 9.38928C58.0246 6.75757 53.5241 6.9914 50.8911 9.91155L11.5417 53.5522Z" fill="#838BFF"/>
</g>
<defs>
<clipPath id="clip0_178_311">
<rect width="73" height="73" fill="white"/>
</clipPath>
</defs>
</svg>
