<svg width="1920" height="505" viewBox="0 0 1920 505" fill="none" xmlns="http://www.w3.org/2000/svg">
<g clip-path="url(#clip0_178_395)">
<path d="M1528.66 505C1458.48 505 1390.41 499.155 1324.58 487.427C1201.14 465.436 1084.65 422.674 972.001 381.32C858.993 339.834 752.269 300.651 641.108 281.763C389.026 238.925 120.264 309.847 -77.8759 471.434L-185 340.138C50.4788 148.088 369.909 63.8009 669.479 114.712C796.025 136.208 915.164 179.941 1030.4 222.246C1141.05 262.857 1245.54 301.222 1354.3 320.604C1534.87 352.78 1738.32 332.979 1959 261.81C2160.76 196.734 2355.36 96.7199 2543.54 0L2621.02 150.716C2426.78 250.539 2225.96 353.77 2011.04 423.093C1841.92 477.64 1680.44 505.019 1528.68 505.019L1528.66 505Z" fill="#1B4448"/>
<path d="M-28.6172 312.284L-7.72932 300.384L-6.26316 302.974L-24.3711 313.293L-17.2117 325.84L-2.37882 317.386L-1.14117 319.576L-15.974 328.029L-8.70041 340.786L9.86446 330.219L11.3306 332.808L-10.0142 344.955L-28.6172 312.303V312.284Z" fill="#E8F71C"/>
<path d="M4.51416 293.739L7.35125 292.254L23.3647 322.946L41.7391 313.35L43.1101 315.977L21.8985 327.058L4.49512 293.739H4.51416Z" fill="#E8F71C"/>
<path d="M55.0859 268.417L68.3194 262.458C76.1261 258.935 82.7714 261.144 85.9132 268.131C89.1311 275.271 86.3892 281.268 78.9251 284.619L68.0909 289.493L73.4414 301.374L70.5281 302.688L55.0859 268.417ZM77.6684 282.373C83.4569 279.764 85.6466 275.195 83.1141 269.578C80.6198 264.057 75.5739 262.439 69.4237 265.218L59.2178 269.826L67.0436 287.171L77.6684 282.373Z" fill="#E8F71C"/>
<path d="M94.0254 251.281L116.303 242.257L117.427 245.018L98.1001 252.843L103.527 266.227L119.35 259.811L120.302 262.134L104.479 268.55L109.982 282.144L129.784 274.129L130.908 276.889L108.154 286.104L94.0445 251.281H94.0254Z" fill="#E8F71C"/>
<path d="M129.422 237.212L143.988 231.976C152.328 228.968 157.717 231.157 159.982 237.459C161.601 241.972 160.858 246.122 156.212 248.407L156.25 248.521C161.449 247.265 164.248 250.006 165.866 254.48L168.932 262.972L165.866 264.076L162.801 255.585C161.296 251.396 158.421 249.321 152.29 251.529L139.609 256.099L145.169 271.521L142.16 272.606L129.422 237.25V237.212ZM150.386 249.587C157.26 247.112 158.726 243.247 157.107 238.735C155.394 233.956 151.338 232.49 144.997 234.775L133.44 238.925L138.771 253.757L150.386 249.568V249.587Z" fill="#E8F71C"/>
<path d="M170.607 222.799L193.095 215.678L193.99 218.515L174.549 224.684L179.138 239.173L195.913 233.861L196.693 236.317L179.918 241.629L185.002 257.698L181.956 258.669L170.607 222.837V222.799Z" fill="#E8F71C"/>
<path d="M205.643 211.965L228.815 205.511L229.615 208.367L209.527 213.964L213.392 227.882L229.844 223.313L230.51 225.731L214.059 230.3L218 244.446L238.583 238.715L239.383 241.571L215.715 248.159L205.643 211.946V211.965Z" fill="#E8F71C"/>
<path d="M244.258 220.914C241.497 209.243 247.4 200.218 257.796 197.762C266.859 195.63 274.895 199.59 276.894 208.043L277.218 209.376L274.266 210.08L273.981 208.919C272.362 202.084 265.698 198.961 258.481 200.675C250.027 202.674 245.02 210.252 247.362 220.19C249.685 230.034 257.739 234.527 266.06 232.547C273.333 230.833 277.979 225.16 276.418 218.534L276.266 217.925L279.217 217.22L279.388 217.944C281.35 226.226 275.79 233.289 266.726 235.422C256.444 237.859 246.962 232.528 244.22 220.914H244.258Z" fill="#E8F71C"/>
<path d="M296.849 192.907L284.167 195.363L283.615 192.507L312.215 186.948L312.767 189.804L300.028 192.279L306.636 226.321L303.437 226.949L296.83 192.907H296.849Z" fill="#E8F71C"/>
<path d="M344.317 181.617L349.706 180.912L367.014 212.194H367.071L375.944 177.504L381.276 176.819L386.112 214.098L382.875 214.517L378.382 179.446H378.267L368.88 216.345L366.157 216.706L347.669 183.445H347.611L352.219 218.515L349.154 218.915L344.317 181.636V181.617Z" fill="#E8F71C"/>
<path d="M396.966 175.315L420.919 173.277L421.167 176.228L400.393 177.999L401.612 192.393L418.634 190.946L418.844 193.459L401.821 194.906L403.059 209.528L424.347 207.72L424.594 210.671L400.127 212.765L396.928 175.315H396.966Z" fill="#E8F71C"/>
<path d="M434.972 172.325L448.205 171.735C459.325 171.24 466.884 177.713 467.417 189.632C467.951 201.608 461.4 208.767 451.023 209.223L436.647 209.852L434.991 172.306L434.972 172.325ZM450.814 206.253C459.268 205.873 464.599 199.932 464.142 189.765C463.704 179.731 457.459 174.286 448.376 174.686L438.285 175.124L439.694 206.729L450.814 206.234V206.253Z" fill="#E8F71C"/>
<path d="M480.955 170.745L484.211 170.707L484.668 208.291L481.412 208.329L480.955 170.745Z" fill="#E8F71C"/>
<path d="M525.225 199.095L504.204 198.676L500.015 208.138L496.588 208.062L513.553 170.802L517.381 170.878L532.804 208.786L529.034 208.71L525.225 199.095ZM524.254 196.543L515.324 173.906H515.21L505.347 196.163L524.254 196.543Z" fill="#E8F71C"/>
<path d="M566.258 173.144L569.514 173.373L566.791 210.861L563.535 210.633L566.258 173.144Z" fill="#E8F71C"/>
<path d="M585.242 174.553L590.402 175.105L609.786 210.575H609.9L613.404 177.542L616.469 177.866L612.509 215.24L608.701 214.84L588.098 177.218H588.041L584.328 212.251L581.263 211.927L585.223 174.553H585.242Z" fill="#E8F71C"/>
<path d="M632.349 179.922L637.49 180.722L655.141 217.106H655.256L660.359 184.263L663.405 184.739L657.636 221.885L653.847 221.294L635.091 182.721H635.034L629.627 217.544L626.58 217.068L632.349 179.922Z" fill="#E8F71C"/>
<path d="M674.048 205.53C676.428 193.84 686.063 188.395 696.174 190.47C706.304 192.545 713.082 201.322 710.683 213.013C708.246 224.931 698.554 230.472 688.424 228.396C678.294 226.321 671.592 217.449 674.029 205.53H674.048ZM707.522 212.365C709.541 202.465 703.828 195.059 695.603 193.383C687.377 191.708 679.208 196.277 677.19 206.177C675.115 216.306 680.827 223.827 689.053 225.502C697.278 227.178 705.466 222.494 707.522 212.365Z" fill="#E8F71C"/>
<path d="M723.364 196.791L726.868 197.648L732.599 234.375L732.77 234.413L754.725 204.426L758.114 205.244L733.665 237.973L729.952 237.059L723.383 196.772L723.364 196.791Z" fill="#E8F71C"/>
<path d="M781.972 240.867L761.694 235.288L755.315 243.437L752.002 242.523L777.612 210.575L781.306 211.584L786.942 252.119L783.305 251.11L781.972 240.848V240.867ZM781.649 238.163L778.564 214.04L778.45 214.002L763.407 233.156L781.649 238.163Z" fill="#E8F71C"/>
<path d="M811.01 223.16L798.634 219.467L799.472 216.668L827.385 225.007L826.548 227.806L814.114 224.093L804.194 257.317L801.071 256.384L810.991 223.16H811.01Z" fill="#E8F71C"/>
<path d="M829.499 245.132C833.155 233.765 843.323 229.424 853.167 232.604C863.011 235.783 868.78 245.246 865.105 256.612C861.373 268.188 851.129 272.624 841.285 269.464C831.441 266.284 825.767 256.727 829.499 245.151V245.132ZM862.002 255.603C865.105 245.988 860.231 237.992 852.253 235.422C844.275 232.851 835.649 236.488 832.546 246.103C829.366 255.946 834.202 264.038 842.199 266.608C850.196 269.178 858.841 265.428 862.021 255.584L862.002 255.603Z" fill="#E8F71C"/>
<path d="M883.88 243.304L898.522 248.331C906.9 251.206 909.738 256.289 907.567 262.61C906.005 267.141 902.826 269.921 897.78 268.798L897.742 268.912C902.578 271.178 903.054 275.081 901.512 279.574L898.58 288.104L895.495 287.057L898.427 278.527C899.874 274.319 898.922 270.911 892.772 268.798L880.015 264.419L874.702 279.936L871.675 278.908L883.88 243.342V243.304ZM892.506 266.075C899.417 268.455 902.978 266.342 904.539 261.81C906.196 256.993 903.949 253.338 897.57 251.148L885.955 247.169L880.833 262.077L892.506 266.075Z" fill="#E8F71C"/>
<path d="M914.974 280.278L917.83 281.288C915.907 286.676 916.535 292.045 925.256 295.167C934.186 298.347 937.88 295.491 939.27 291.607C940.146 289.132 939.612 287.247 937.937 285.667C936.261 284.086 932.358 282.106 929.388 280.545C926.189 278.984 922.247 276.604 920.667 274.7C919.124 272.758 918.534 269.997 919.677 266.761C921.847 260.687 928.778 258.25 937.118 261.22C947.019 264.761 948.752 270.587 945.82 278.831L942.964 277.803C945.382 271.025 943.592 266.513 936.223 263.867C929.711 261.544 924.342 263.143 922.761 267.617C921.885 270.092 922.304 271.939 923.599 273.443C925.027 275.043 929.273 277.289 932.072 278.774C935.347 280.488 939.003 282.468 940.888 284.467C942.849 286.447 943.459 289.322 942.335 292.502C940.469 297.719 935.5 301.774 924.323 297.776C913.031 293.739 912.746 286.542 914.993 280.259L914.974 280.278Z" fill="#E8F71C"/>
<path d="M977.047 298.29L985.006 291.341V291.207L978.056 286.048L979.313 284.258L986.263 289.532H986.396L990.014 279.65L991.994 280.374L988.376 290.236L988.471 290.331L997.249 290.807L997.002 292.959L988.433 292.445L988.338 292.54L989.938 302.974L987.862 303.316L986.282 293.187L986.129 293.13L978.437 299.87L977.066 298.271L977.047 298.29Z" fill="#E8F71C"/>
<path d="M1030.78 295.967L1044.41 300.955C1052.47 303.887 1055.67 310.113 1053.04 317.31C1050.35 324.659 1044.18 327.039 1036.51 324.221L1025.35 320.147L1020.88 332.389L1017.87 331.285L1030.78 295.986V295.967ZM1037.18 321.727C1043.14 323.898 1047.9 322.184 1050.01 316.377C1052.09 310.684 1049.61 306.001 1043.27 303.697L1032.76 299.851L1026.23 317.71L1037.18 321.708V321.727Z" fill="#E8F71C"/>
<path d="M1069.8 310.208L1072.86 311.313L1060.08 346.65L1057.02 345.546L1069.8 310.208Z" fill="#E8F71C"/>
<path d="M1091.37 337.587L1084.25 315.444L1088.07 316.796L1094.15 336.273L1111.02 324.926L1114.58 326.183L1095.2 338.825L1102.41 361.729L1098.64 360.396L1092.38 340.253L1074.96 352.019L1071.36 350.743L1091.39 337.606L1091.37 337.587Z" fill="#E8F71C"/>
<path d="M1125.58 329.99L1148.36 337.739L1147.41 340.557L1127.68 333.836L1123.01 347.506L1139.18 353.009L1138.36 355.389L1122.2 349.886L1117.45 363.785L1137.68 370.677L1136.72 373.495L1113.47 365.575L1125.6 329.99H1125.58Z" fill="#E8F71C"/>
<path d="M1159.97 341.604L1163.02 342.595L1152.36 375.514L1172.08 381.911L1171.17 384.729L1148.4 377.36L1159.97 341.604Z" fill="#E8F71C"/>
<path d="M1210.93 357.635L1224.86 361.672C1233.09 364.052 1236.71 370.049 1234.59 377.398C1232.42 384.919 1226.43 387.698 1218.58 385.433L1207.16 382.12L1203.54 394.629L1200.47 393.734L1210.93 357.616V357.635ZM1219.08 382.9C1225.17 384.671 1229.8 382.615 1231.53 376.694C1233.2 370.868 1230.4 366.374 1223.93 364.508L1213.17 361.386L1207.88 379.664L1219.08 382.9Z" fill="#E8F71C"/>
<path d="M1249.65 368.64L1272.92 374.714L1272.18 377.589L1252 372.334L1248.34 386.328L1264.87 390.631L1264.24 393.068L1247.71 388.765L1244 402.968L1264.68 408.356L1263.94 411.231L1240.15 405.043L1249.64 368.659L1249.65 368.64Z" fill="#E8F71C"/>
<path d="M1283.99 377.456L1299.09 380.883C1307.71 382.844 1311.08 387.604 1309.62 394.115C1308.55 398.799 1305.67 401.883 1300.53 401.312V401.426C1305.56 403.159 1306.45 406.986 1305.39 411.612L1303.39 420.408L1300.21 419.685L1302.21 410.889C1303.2 406.548 1301.88 403.254 1295.54 401.826L1282.41 398.837L1278.77 414.83L1275.65 414.125L1283.99 377.475V377.456ZM1294.97 399.16C1302.09 400.779 1305.41 398.323 1306.47 393.639C1307.6 388.689 1304.97 385.281 1298.4 383.777L1286.42 381.054L1282.92 396.419L1294.95 399.16H1294.97Z" fill="#E8F71C"/>
<path d="M1323.95 386.251L1347.13 390.669L1346.57 393.582L1326.54 389.774L1323.71 404.701L1340.99 407.994L1340.52 410.527L1323.23 407.233L1320.07 423.778L1316.93 423.188L1323.97 386.271L1323.95 386.251Z" fill="#E8F71C"/>
<path d="M1357.81 392.478L1381.57 396.133L1381.11 399.065L1360.51 395.886L1358.32 410.165L1375.21 412.754L1374.83 415.23L1357.96 412.64L1355.73 427.148L1376.85 430.404L1376.39 433.336L1352.11 429.604L1357.83 392.458L1357.81 392.478Z" fill="#E8F71C"/>
<path d="M1387.99 416.086C1389.34 404.168 1397.97 397.675 1408.57 398.894C1417.82 399.941 1424.03 406.414 1423.06 415.039L1422.91 416.391L1419.9 416.048L1420.03 414.868C1420.83 407.88 1415.62 402.701 1408.25 401.845C1399.62 400.855 1392.33 406.3 1391.17 416.448C1390.03 426.482 1396.06 433.45 1404.57 434.421C1412 435.278 1418.3 431.508 1419.06 424.749L1419.14 424.121L1422.15 424.463L1422.07 425.206C1421.1 433.66 1413.48 438.419 1404.25 437.372C1393.76 436.173 1386.64 427.948 1387.99 416.086Z" fill="#E8F71C"/>
<path d="M1444.46 405.786L1431.59 404.815L1431.82 401.902L1460.86 404.091L1460.63 406.985L1447.7 406.014L1445.09 440.571L1441.83 440.323L1444.44 405.767L1444.46 405.786Z" fill="#E8F71C"/>
<path d="M1488.87 405.52L1494.29 405.615L1506.8 439.105H1506.86L1520.74 406.11L1526.11 406.205L1525.41 443.789L1522.15 443.732L1522.87 408.375H1522.76L1508.04 443.465L1505.3 443.408L1491.91 407.785H1491.86L1491.25 443.141L1488.16 443.084L1488.87 405.5V405.52Z" fill="#E8F71C"/>
<path d="M1538.91 406.072L1562.95 405.615L1563.01 408.585L1542.16 408.985L1542.43 423.436L1559.51 423.112L1559.56 425.625L1542.48 425.949L1542.75 440.628L1564.12 440.228L1564.17 443.198L1539.61 443.655L1538.91 406.072Z" fill="#E8F71C"/>
<path d="M1574.28 405.272L1587.52 404.586C1598.64 404.015 1606.23 410.413 1606.86 422.331C1607.49 434.307 1601 441.504 1590.62 442.037L1576.24 442.779L1574.3 405.253L1574.28 405.272ZM1590.39 439.086C1598.83 438.648 1604.12 432.651 1603.61 422.503C1603.09 412.469 1596.81 407.081 1587.73 407.538L1577.63 408.071L1579.27 439.657L1590.39 439.086Z" fill="#E8F71C"/>
<path d="M1618.21 402.664L1621.47 402.416L1624.34 439.885L1621.09 440.133L1618.21 402.664Z" fill="#E8F71C"/>
<path d="M1663.66 426.672L1642.75 428.786L1639.73 438.686L1636.32 439.029L1648.69 400.017L1652.5 399.636L1672.34 435.411L1668.59 435.792L1663.66 426.71V426.672ZM1662.39 424.273L1650.81 402.873H1650.69L1643.57 426.158L1662.39 424.254V424.273Z" fill="#E8F71C"/>
<path d="M1697.9 394.172L1701.11 393.734L1706.26 430.975L1703.04 431.413L1697.9 394.172Z" fill="#E8F71C"/>
<path d="M1714.82 391.849L1719.97 391.03L1747.97 420.199H1748.09L1742.81 387.356L1745.86 386.861L1751.82 423.969L1748.05 424.578L1718.33 393.658H1718.27L1723.87 428.462L1720.82 428.957L1714.86 391.849H1714.82Z" fill="#E8F71C"/>
<path d="M1758.87 384.557L1763.97 383.567L1792.85 411.878H1792.97L1786.7 379.207L1789.73 378.617L1796.81 415.534L1793.06 416.258L1762.41 386.251H1762.35L1768.99 420.884L1765.97 421.474L1758.88 384.557H1758.87Z" fill="#E8F71C"/>
<path d="M1805.42 394.419C1802.81 382.767 1809.38 373.876 1819.47 371.61C1829.57 369.364 1839.35 374.599 1841.94 386.251C1844.59 398.132 1838 407.157 1827.91 409.403C1817.82 411.669 1808.07 406.281 1805.42 394.419ZM1838.76 386.956C1836.55 377.094 1828.31 372.676 1820.12 374.504C1811.93 376.332 1806.34 383.852 1808.54 393.715C1810.79 403.806 1819.07 408.337 1827.26 406.509C1835.45 404.682 1841.01 397.047 1838.76 386.956Z" fill="#E8F71C"/>
<path d="M1844.49 366.489L1847.98 365.613L1870.22 395.428L1870.39 395.39L1875.8 358.625L1879.17 357.769L1872.82 398.132L1869.11 399.065L1844.47 366.508L1844.49 366.489Z" fill="#E8F71C"/>
<path d="M1916.09 376.732L1895.83 382.311L1894.51 392.573L1891.22 393.487L1896.87 352.952L1900.57 351.943L1926.12 383.872L1922.48 384.881L1916.11 376.751L1916.09 376.732ZM1914.43 374.581L1899.44 355.427L1899.33 355.465L1896.21 379.607L1914.43 374.581Z" fill="#E8F71C"/>
<path d="M1930.48 346.383L1918.1 350.039L1917.29 347.24L1945.22 338.977L1946.04 341.776L1933.6 345.45L1943.45 378.693L1940.32 379.626L1930.48 346.383Z" fill="#E8F71C"/>
</g>
<defs>
<clipPath id="clip0_178_395">
<rect width="2806" height="505" fill="white" transform="translate(-185)"/>
</clipPath>
</defs>
</svg>
