<svg width="15" height="15" viewBox="0 0 15 15" fill="none" xmlns="http://www.w3.org/2000/svg">
<g id="linkedin logo" clip-path="url(#clip0_360_417)">
<path id="Vector" d="M-0.0722656 1.81484C-0.0722656 1.31484 0.0974313 0.902344 0.436825 0.577344C0.776219 0.252344 1.21743 0.0898438 1.76046 0.0898438C2.29379 0.0898438 2.72531 0.249844 3.05501 0.569844C3.3944 0.899844 3.5641 1.32984 3.5641 1.85984C3.5641 2.33984 3.39925 2.73984 3.06955 3.05984C2.73016 3.38984 2.2841 3.55484 1.73137 3.55484H1.71683C1.18349 3.55484 0.751977 3.38984 0.42228 3.05984C0.0925828 2.72984 -0.0722656 2.31484 -0.0722656 1.81484ZM0.116825 14.9398V4.91984H3.34592V14.9398H0.116825ZM5.13501 14.9398H8.3641V9.34484C8.3641 8.99484 8.40289 8.72484 8.48046 8.53484C8.61622 8.19484 8.82228 7.90734 9.09864 7.67234C9.37501 7.43734 9.72167 7.31984 10.1386 7.31984C11.2247 7.31984 11.7677 8.07484 11.7677 9.58484V14.9398H14.9968V9.19484C14.9968 7.71484 14.6574 6.59234 13.9786 5.82734C13.2999 5.06234 12.4029 4.67984 11.2877 4.67984C10.0368 4.67984 9.06228 5.23484 8.3641 6.34484V6.37484H8.34955L8.3641 6.34484V4.91984H5.13501C5.1544 5.23984 5.1641 6.23484 5.1641 7.90484C5.1641 9.57484 5.1544 11.9198 5.13501 14.9398Z" fill="#1B4448"/>
</g>
<defs>
<clipPath id="clip0_360_417">
<rect width="15" height="15" fill="white"/>
</clipPath>
</defs>
</svg>
